<svg xmlns="http://www.w3.org/2000/svg" xmlns:xlink="http://www.w3.org/1999/xlink" viewBox="0 0 32 32"><defs><style>.cls-1{fill:#4c1a1d;}.cls-2{fill:#a63840;}.cls-3{fill:url(#radial-gradient);}.cls-4{fill:url(#radial-gradient-2);}</style><radialGradient id="radial-gradient" cx="-71.5" cy="599.3" r="94.6" gradientTransform="translate(15.06 -15.23) scale(0.06 0.06)" gradientUnits="userSpaceOnUse"><stop offset="0" stop-color="#ff5662" stop-opacity="0.7"/><stop offset="0.95" stop-color="#ff5662" stop-opacity="0.99"/><stop offset="1" stop-color="#ff5662"/></radialGradient><radialGradient id="radial-gradient-2" cx="-921.46" cy="1448.36" r="94.7" gradientTransform="matrix(0, 0.06, 0.06, 0, -65.05, 64.74)" xlink:href="#radial-gradient"/></defs><title>Asset 1</title><g id="Layer_2" data-name="Layer 2"><g id="Layer_1-2" data-name="Layer 1"><path class="cls-1" d="M4.63,16.25A7,7,0,0,1,15.14,25.6C12.56,28.5,0,32,0,32S2,19.15,4.63,16.25Z"/><path class="cls-2" d="M5.47,16.22a6.43,6.43,0,0,1,9.61,8.56c-2.37,2.65-13.49,5.45-13.49,5.45S3.1,18.87,5.47,16.22Z"/><ellipse class="cls-3" cx="10.87" cy="19.82" rx="5.54" ry="5.53"/><path class="cls-1" d="M16.22,4.62a7,7,0,1,0,9.37,10.49C28.5,12.53,32,0,32,0S19.13,2,16.22,4.62Z"/><path class="cls-2" d="M16.19,5.46a6.43,6.43,0,1,0,8.57,9.59c2.66-2.36,5.46-13.47,5.46-13.47S18.85,3.09,16.19,5.46Z"/><ellipse class="cls-4" cx="19.8" cy="10.85" rx="5.55" ry="5.54"/></g></g></svg>